<?xml version="1.0" encoding="utf-8"?>
<!-- Generator: Adobe Illustrator 23.0.3, SVG Export Plug-In . SVG Version: 6.00 Build 0)  -->
<svg version="1.1" xmlns="http://www.w3.org/2000/svg" xmlns:xlink="http://www.w3.org/1999/xlink" x="0px" y="0px"
	 viewBox="0 0 326.7 161" style="enable-background:new 0 0 326.7 161;" xml:space="preserve">
<style type="text/css">
	.st0{clip-path:url(#SVGID_2_);fill:#025BA2;}
	.st1{clip-path:url(#SVGID_2_);fill:#FFF100;}
	.st2{fill:#0E0F0F;stroke:#0E0F0F;stroke-width:4;stroke-linecap:round;stroke-linejoin:round;}
	.st3{clip-path:url(#SVGID_4_);fill:#0E0F0F;stroke:#0E0F0F;stroke-width:4;stroke-linecap:round;stroke-linejoin:round;}
	.st4{clip-path:url(#SVGID_6_);fill:#0E0F0F;stroke:#0E0F0F;stroke-width:4;stroke-linecap:round;stroke-linejoin:round;}
	.st5{clip-path:url(#SVGID_8_);fill:#025BA2;stroke:#025BA2;stroke-width:4;stroke-linecap:round;stroke-linejoin:round;}
	.st6{clip-path:url(#SVGID_8_);fill:#025BA2;}
	.st7{fill:#FFFFFF;}
</style>
<g id="box">
	<defs>
		<rect id="SVGID_1_" x="0" y="0.1" width="326.6" height="160.9"/>
	</defs>
	<clipPath id="SVGID_2_">
		<use xlink:href="#SVGID_1_"  style="overflow:visible;"/>
	</clipPath>
	<path class="st0" d="M217.3,120c0.1,3.1-1.3,6.3-4.4,7.7c-0.6,1.8-1.7,3.5-3.5,4.4c1.7,4.5-0.3,10.6-6.2,11.2
		c-1.1,1.6-2.8,2.7-5.1,3c0.1,3-1.2,6.1-4.1,7.6c0.3,2.6-0.4,5.4-2.3,7.2h134.9v-41H217.3z"/>
	<path class="st0" d="M194.4,160.6c3.3-3.2,5-7.6,7.7-11.3c2.5-3.5,5.5-6.4,7.7-10c4.2-6.9,9.4-13.1,14.5-19.3H0v41h194.1
		C194.2,160.9,194.3,160.7,194.4,160.6z"/>
	<rect x="-0.1" class="st1" width="326.8" height="115"/>
</g>
<g id="IndEx_copy">
	<path class="st2" d="M46.9,90.2V25.7h8.6v64.5H46.9z"/>
	<path class="st2" d="M80.5,49.1c2.7-3.7,6.7-7,15.4-7c10.5,0,15.5,4.9,15.5,17.3v30.9h-7.9V61.5c0-9.2-1-12.6-9.8-12.6
		c-7.4,0-12.5,2.4-12.5,15.7v25.6h-7.9V43.3h7.3V49.1z"/>
	<path class="st2" d="M145.2,84.5c9,0,12.3-4.1,12.3-17.4V25.7h7.9v64.5h-7.9v-5.3c-3.4,5.8-8.2,6.5-12.3,6.5
		c-16.6,0-21.1-11.3-21.1-25.1c0-15.7,5.8-24.2,19.1-24.2c3.3,0,5.9,0.5,8,1.4v6.7c-1.7-0.8-3.9-1.3-6.4-1.3
		c-10.5,0-12.4,6.6-12.4,17.4C132.4,79.3,135.2,84.5,145.2,84.5z"/>
	<path class="st2" d="M187.6,82.6h39.1v7.6H179V25.7h46.9v7.6h-38.2V82.6z M193.9,53.2h29.2v7.6h-29.2V53.2z"/>
</g>
<g id="X_2_">
	<defs>
		<polygon id="SVGID_3_" points="283.3,94 248.4,92.7 268.9,63.3 287.7,86.7 		"/>
	</defs>
	<clipPath id="SVGID_4_">
		<use xlink:href="#SVGID_3_"  style="overflow:visible;"/>
	</clipPath>
	<path class="st3" d="M236,90.2L252.7,66l-15.7-22.7H247l10.7,16.4l11.1-16.4h9.6l-16,22.5l16.9,24.4h-10l-11.9-17.9l-11.7,17.9H236
		z"/>
</g>
<g id="X_1_">
	<defs>
		<polygon id="SVGID_5_" points="231.3,38.5 266.8,39.8 245.5,69.7 226.9,45.9 		"/>
	</defs>
	<clipPath id="SVGID_6_">
		<use xlink:href="#SVGID_5_"  style="overflow:visible;"/>
	</clipPath>
	<path class="st4" d="M236,90.2L252.7,66l-15.7-22.7H247l10.7,16.4l11.1-16.4h9.6l-16,22.5l16.9,24.4h-10l-11.9-17.9l-11.7,17.9H236
		z"/>
</g>
<g id="X">
	<defs>
		<rect id="SVGID_7_" x="0" y="0.1" width="326.6" height="160.9"/>
	</defs>
	<clipPath id="SVGID_8_">
		<use xlink:href="#SVGID_7_"  style="overflow:visible;"/>
	</clipPath>
	<path class="st5" d="M268.8,43.3L258.2,59c0.3,2.9-0.8,6-3.3,7.7c0.8,0.4,1.5,1,2,1.6c1.2-2,3.3-3.5,6.3-3.6l15.3-21.4H268.8z"/>
	<polygon class="st6" points="198.7,161 277.7,47.7 263.7,47.2 183.7,161 	"/>
</g>
<g id="haexp">
	<g>
		<path class="st7" d="M37.3,137.4l-2,8.7H33l0.9-3.9h-3.3l-0.9,3.9h-2.3l2-8.7h2.3l-0.7,3.2h3.3l0.7-3.2H37.3z"/>
		<path class="st7" d="M46,146.1h-2.3l-0.2-1.8h-3.2l-1,1.8h-2.4l5.2-8.7h2.6L46,146.1z M43.3,142.8l-0.4-3.1l-1.8,3.1H43.3z"/>
		<path class="st7" d="M54.1,146.1h-7.3l0.4-1.6l5.8-5.5h-4.3l0.4-1.7h6.9l-0.4,1.6l-5.8,5.4h4.7L54.1,146.1z"/>
		<path class="st7" d="M64.2,146.1h-2.3l-0.2-1.8h-3.2l-1,1.8h-2.4l5.2-8.7H63L64.2,146.1z M61.5,142.8l-0.4-3.1l-1.8,3.1H61.5z"/>
		<path class="st7" d="M74.4,139.6c0,0.7-0.2,1.3-0.6,1.8c-0.4,0.5-1,0.8-1.7,1.1l2,3.7h-2.5l-1.6-3.2h-1.3l-0.7,3.2h-2.2l2-8.7H71
			c1.1,0,1.9,0.2,2.5,0.5C74.1,138.3,74.4,138.9,74.4,139.6z M72,140c0-0.4-0.1-0.6-0.3-0.7c-0.2-0.1-0.6-0.2-1-0.2h-1.1l-0.5,2.3
			h1.1c0.6,0,1.1-0.1,1.4-0.4C71.8,140.7,72,140.4,72,140z"/>
		<path class="st7" d="M84.7,140.8c0,1-0.3,1.9-0.8,2.7s-1.2,1.5-2,1.9c-0.5,0.3-1,0.4-1.5,0.5s-1.2,0.1-1.9,0.1h-3.2l2-8.7h2.8
			c0.8,0,1.5,0.1,2,0.2s0.9,0.3,1.2,0.5c0.4,0.3,0.8,0.7,1,1.1S84.7,140.2,84.7,140.8z M82.4,141c0-0.4-0.1-0.7-0.2-1
			c-0.1-0.3-0.4-0.5-0.7-0.7c-0.1-0.1-0.3-0.1-0.4-0.2c-0.1,0-0.3-0.1-0.5-0.1c-0.2,0-0.4,0-0.6,0c-0.2,0-0.4,0-0.6,0h-0.1l-1.3,5.5
			h0.2c0.2,0,0.5,0,0.7,0c0.3,0,0.5,0,0.6,0c0.2,0,0.4-0.1,0.6-0.1c0.2,0,0.3-0.1,0.5-0.2c0.6-0.3,1-0.7,1.3-1.3
			S82.4,141.7,82.4,141z"/>
		<path class="st7" d="M95.2,140.6c0,0.7-0.1,1.4-0.4,2.1s-0.6,1.3-1.1,1.8c-0.5,0.6-1.1,1-1.8,1.3s-1.4,0.4-2.3,0.4
			c-1.2,0-2.1-0.3-2.8-0.9s-1-1.5-1-2.5c0-0.8,0.1-1.5,0.4-2.2s0.6-1.3,1.1-1.8c0.5-0.5,1-0.9,1.7-1.2s1.4-0.5,2.3-0.5
			c1.2,0,2.1,0.3,2.8,0.9S95.2,139.6,95.2,140.6z M92,143.6c0.3-0.3,0.5-0.8,0.6-1.2s0.2-1,0.2-1.6c0-0.6-0.1-1.1-0.4-1.5
			s-0.7-0.5-1.3-0.5c-0.4,0-0.7,0.1-1,0.2s-0.6,0.4-0.9,0.8c-0.3,0.3-0.5,0.7-0.7,1.2s-0.2,1-0.2,1.6c0,0.7,0.2,1.2,0.5,1.5
			s0.7,0.5,1.3,0.5c0.4,0,0.7-0.1,1.1-0.3S91.8,144,92,143.6z"/>
		<path class="st7" d="M105.8,137.4l-1.3,5.4c-0.3,1.2-0.8,2.1-1.4,2.6s-1.7,0.8-3,0.8c-1.1,0-2-0.2-2.6-0.6s-0.9-1-0.9-1.9
			c0-0.2,0-0.3,0-0.5s0.1-0.3,0.1-0.5l1.3-5.4h2.3l-1.2,5.4c0,0.1,0,0.2-0.1,0.4s0,0.2,0,0.3c0,0.4,0.1,0.6,0.3,0.8s0.6,0.3,1.1,0.3
			c0.5,0,0.9-0.1,1.2-0.4c0.3-0.3,0.5-0.7,0.7-1.3l1.3-5.5H105.8z"/>
		<path class="st7" d="M109.3,146.3c-0.7,0-1.4-0.1-2-0.2s-1.1-0.3-1.5-0.5l0.5-2.1h0.2c0.4,0.4,0.9,0.7,1.4,0.9s1.1,0.3,1.8,0.3
			c0.6,0,1.1-0.1,1.4-0.3s0.5-0.4,0.5-0.7c0-0.1,0-0.2-0.1-0.3s-0.1-0.2-0.3-0.3s-0.3-0.2-0.6-0.3s-0.6-0.2-0.9-0.3
			c-0.4-0.1-0.8-0.2-1.1-0.4s-0.6-0.3-0.9-0.5c-0.2-0.2-0.4-0.4-0.5-0.7s-0.2-0.5-0.2-0.9c0-0.9,0.4-1.6,1.2-2.1s1.8-0.8,3.2-0.8
			c0.6,0,1.3,0.1,1.8,0.2s1.1,0.2,1.5,0.4l-0.4,2h-0.2c-0.3-0.3-0.7-0.5-1.2-0.7s-1-0.3-1.6-0.3c-0.6,0-1,0.1-1.3,0.3
			c-0.3,0.2-0.5,0.4-0.5,0.7c0,0.1,0,0.3,0.1,0.3s0.1,0.2,0.3,0.3c0.1,0.1,0.3,0.2,0.6,0.3s0.6,0.2,0.9,0.3c1,0.3,1.7,0.6,2.1,0.9
			s0.6,0.8,0.6,1.4c0,0.5-0.1,0.9-0.3,1.3s-0.5,0.7-0.9,0.9c-0.4,0.3-0.9,0.4-1.4,0.6S110,146.3,109.3,146.3z"/>
		<path class="st7" d="M127.5,146.1h-2.3l-0.2-1.8h-3.2l-1,1.8h-2.4l5.2-8.7h2.6L127.5,146.1z M124.9,142.8l-0.4-3.1l-1.8,3.1H124.9
			z"/>
		<path class="st7" d="M137.7,139.6c0,0.7-0.2,1.3-0.6,1.8c-0.4,0.5-1,0.8-1.7,1.1l2,3.7h-2.5l-1.6-3.2H132l-0.7,3.2H129l2-8.7h3.4
			c1.1,0,1.9,0.2,2.5,0.5C137.4,138.3,137.7,138.9,137.7,139.6z M135.3,140c0-0.4-0.1-0.6-0.3-0.7c-0.2-0.1-0.6-0.2-1-0.2h-1.1
			l-0.5,2.3h1.1c0.6,0,1.1-0.1,1.4-0.4C135.1,140.7,135.3,140.4,135.3,140z"/>
		<path class="st7" d="M147,137.4l-0.4,1.7h-4.1l-0.4,1.6h3.8l-0.4,1.7h-3.8l-0.5,2.2h4.1l-0.4,1.7h-6.3l2-8.7H147z"/>
		<path class="st7" d="M155.3,146.1H153l-0.2-1.8h-3.2l-1,1.8h-2.4l5.2-8.7h2.6L155.3,146.1z M152.7,142.8l-0.4-3.1l-1.8,3.1H152.7z
			"/>
		<path class="st7" d="M169.5,137.4l-0.4,1.7h-4.1l-0.4,1.6h3.8l-0.4,1.7h-3.8l-0.5,2.2h4.1l-0.4,1.7h-6.3l2-8.7H169.5z"/>
		<path class="st7" d="M172.1,142.8l-1.8-3.2h2.3l1,2l1.9-2h2.4l-3.4,3.3l1.9,3.3h-2.3l-1.1-2l-2,2h-2.4L172.1,142.8z"/>
		<path class="st7" d="M191.1,139.8c0,1-0.4,1.9-1.3,2.5c-0.9,0.6-2.1,1-3.6,1h-0.9l-0.7,2.8h-2.3l2-8.7h3.1c0.6,0,1.1,0,1.5,0.1
			s0.8,0.2,1.1,0.4c0.3,0.2,0.5,0.4,0.7,0.7S191.1,139.4,191.1,139.8z M188.7,140c0-0.3-0.1-0.6-0.4-0.8s-0.6-0.2-1.1-0.2h-0.9
			l-0.6,2.6h0.8c0.7,0,1.2-0.1,1.6-0.4C188.5,140.9,188.7,140.5,188.7,140z"/>
		<path class="st7" d="M200.3,139.6c0,0.7-0.2,1.3-0.6,1.8s-1,0.8-1.7,1.1l2,3.7h-2.5l-1.6-3.2h-1.3l-0.7,3.2h-2.2l2-8.7h3.4
			c1.1,0,1.9,0.2,2.5,0.5S200.3,138.9,200.3,139.6z M197.8,140c0-0.4-0.1-0.6-0.3-0.7c-0.2-0.1-0.6-0.2-1-0.2h-1.1l-0.5,2.3h1.1
			c0.6,0,1.1-0.1,1.4-0.4C197.7,140.7,197.8,140.4,197.8,140z"/>
		<path class="st7" d="M210.8,140.6c0,0.7-0.1,1.4-0.4,2.1s-0.6,1.3-1.1,1.8c-0.5,0.6-1.1,1-1.8,1.3s-1.4,0.4-2.3,0.4
			c-1.2,0-2.1-0.3-2.8-0.9s-1-1.5-1-2.5c0-0.8,0.1-1.5,0.4-2.2s0.6-1.3,1.1-1.8c0.5-0.5,1-0.9,1.7-1.2s1.4-0.5,2.3-0.5
			c1.2,0,2.1,0.3,2.8,0.9S210.8,139.6,210.8,140.6z M207.6,143.6c0.3-0.3,0.5-0.8,0.6-1.2s0.2-1,0.2-1.6c0-0.6-0.1-1.1-0.4-1.5
			s-0.7-0.5-1.3-0.5c-0.4,0-0.7,0.1-1,0.2s-0.6,0.4-0.9,0.8c-0.3,0.3-0.5,0.7-0.7,1.2s-0.2,1-0.2,1.6c0,0.7,0.2,1.2,0.5,1.5
			s0.7,0.5,1.3,0.5c0.4,0,0.7-0.1,1.1-0.3S207.4,144,207.6,143.6z"/>
		<path class="st7" d="M220,137.4l-0.4,1.7h-4l-0.4,1.6h3.7l-0.4,1.7h-3.7l-0.9,3.7h-2.2l2-8.7H220z"/>
		<path class="st7" d="M228.1,137.4l-0.4,1.7h-4.1l-0.4,1.6h3.8l-0.4,1.7h-3.8l-0.5,2.2h4.1l-0.4,1.7h-6.3l2-8.7H228.1z"/>
		<path class="st7" d="M231.5,146.3c-0.7,0-1.4-0.1-2-0.2s-1.1-0.3-1.5-0.5l0.5-2.1h0.2c0.4,0.4,0.9,0.7,1.4,0.9s1.1,0.3,1.8,0.3
			c0.6,0,1.1-0.1,1.4-0.3s0.5-0.4,0.5-0.7c0-0.1,0-0.2-0.1-0.3s-0.1-0.2-0.3-0.3s-0.3-0.2-0.6-0.3s-0.6-0.2-0.9-0.3
			c-0.4-0.1-0.8-0.2-1.1-0.4s-0.6-0.3-0.9-0.5c-0.2-0.2-0.4-0.4-0.5-0.7s-0.2-0.5-0.2-0.9c0-0.9,0.4-1.6,1.2-2.1s1.8-0.8,3.2-0.8
			c0.6,0,1.3,0.1,1.8,0.2s1.1,0.2,1.5,0.4l-0.4,2H236c-0.3-0.3-0.7-0.5-1.2-0.7s-1-0.3-1.6-0.3c-0.6,0-1,0.1-1.3,0.3
			c-0.3,0.2-0.5,0.4-0.5,0.7c0,0.1,0,0.3,0.1,0.3s0.1,0.2,0.3,0.3c0.1,0.1,0.3,0.2,0.6,0.3s0.6,0.2,0.9,0.3c1,0.3,1.7,0.6,2.1,0.9
			s0.6,0.8,0.6,1.4c0,0.5-0.1,0.9-0.3,1.3s-0.5,0.7-0.9,0.9c-0.4,0.3-0.9,0.4-1.4,0.6S232.2,146.3,231.5,146.3z"/>
		<path class="st7" d="M240.3,146.3c-0.7,0-1.4-0.1-2-0.2s-1.1-0.3-1.5-0.5l0.5-2.1h0.2c0.4,0.4,0.9,0.7,1.4,0.9s1.1,0.3,1.8,0.3
			c0.6,0,1.1-0.1,1.4-0.3s0.5-0.4,0.5-0.7c0-0.1,0-0.2-0.1-0.3s-0.1-0.2-0.3-0.3s-0.3-0.2-0.6-0.3s-0.6-0.2-0.9-0.3
			c-0.4-0.1-0.8-0.2-1.1-0.4s-0.6-0.3-0.9-0.5c-0.2-0.2-0.4-0.4-0.5-0.7s-0.2-0.5-0.2-0.9c0-0.9,0.4-1.6,1.2-2.1s1.8-0.8,3.2-0.8
			c0.6,0,1.3,0.1,1.8,0.2s1.1,0.2,1.5,0.4l-0.4,2h-0.2c-0.3-0.3-0.7-0.5-1.2-0.7s-1-0.3-1.6-0.3c-0.6,0-1,0.1-1.3,0.3
			c-0.3,0.2-0.5,0.4-0.5,0.7c0,0.1,0,0.3,0.1,0.3s0.1,0.2,0.3,0.3c0.1,0.1,0.3,0.2,0.6,0.3s0.6,0.2,0.9,0.3c1,0.3,1.7,0.6,2.1,0.9
			s0.6,0.8,0.6,1.4c0,0.5-0.1,0.9-0.3,1.3s-0.5,0.7-0.9,0.9c-0.4,0.3-0.9,0.4-1.4,0.6S241,146.3,240.3,146.3z"/>
		<path class="st7" d="M250.7,146.1h-5.1l0.4-1.5h1.4l1.3-5.6h-1.4l0.4-1.5h5.1l-0.4,1.5h-1.4l-1.3,5.6h1.4L250.7,146.1z"/>
		<path class="st7" d="M262.4,140.6c0,0.7-0.1,1.4-0.4,2.1s-0.6,1.3-1.1,1.8c-0.5,0.6-1.1,1-1.8,1.3s-1.4,0.4-2.3,0.4
			c-1.2,0-2.1-0.3-2.8-0.9s-1-1.5-1-2.5c0-0.8,0.1-1.5,0.4-2.2s0.6-1.3,1.1-1.8c0.5-0.5,1-0.9,1.7-1.2c0.7-0.3,1.4-0.5,2.3-0.5
			c1.2,0,2.1,0.3,2.8,0.9S262.4,139.6,262.4,140.6z M259.2,143.6c0.3-0.3,0.5-0.8,0.6-1.2s0.2-1,0.2-1.6c0-0.6-0.1-1.1-0.4-1.5
			s-0.7-0.5-1.3-0.5c-0.4,0-0.7,0.1-1,0.2s-0.6,0.4-0.9,0.8c-0.3,0.3-0.5,0.7-0.7,1.2s-0.2,1-0.2,1.6c0,0.7,0.2,1.2,0.5,1.5
			c0.3,0.3,0.7,0.5,1.3,0.5c0.4,0,0.7-0.1,1.1-0.3C258.7,144.2,259,144,259.2,143.6z"/>
		<path class="st7" d="M271.2,146.1h-1.9l-2.6-6l-1.4,6h-2.1l2-8.7h2.5l2.2,5.1l1.2-5.1h2.1L271.2,146.1z"/>
		<path class="st7" d="M281.9,146.1h-2.3l-0.2-1.8h-3.2l-1,1.8h-2.4l5.2-8.7h2.6L281.9,146.1z M279.3,142.8l-0.4-3.1l-1.8,3.1H279.3
			z"/>
		<path class="st7" d="M289.7,146.1h-6.3l2-8.7h2.3l-1.6,7h4L289.7,146.1z"/>
		<path class="st7" d="M294.5,146.3c-0.7,0-1.4-0.1-2-0.2s-1.1-0.3-1.5-0.5l0.5-2.1h0.2c0.4,0.4,0.9,0.7,1.4,0.9s1.1,0.3,1.8,0.3
			c0.6,0,1.1-0.1,1.4-0.3s0.5-0.4,0.5-0.7c0-0.1,0-0.2-0.1-0.3s-0.1-0.2-0.3-0.3s-0.3-0.2-0.6-0.3s-0.6-0.2-0.9-0.3
			c-0.4-0.1-0.8-0.2-1.1-0.4s-0.6-0.3-0.9-0.5c-0.2-0.2-0.4-0.4-0.5-0.7s-0.2-0.5-0.2-0.9c0-0.9,0.4-1.6,1.2-2.1s1.8-0.8,3.2-0.8
			c0.6,0,1.3,0.1,1.8,0.2s1.1,0.2,1.5,0.4l-0.4,2h-0.2c-0.3-0.3-0.7-0.5-1.2-0.7s-1-0.3-1.6-0.3c-0.6,0-1,0.1-1.3,0.3
			c-0.3,0.2-0.5,0.4-0.5,0.7c0,0.1,0,0.3,0.1,0.3s0.1,0.2,0.3,0.3c0.1,0.1,0.3,0.2,0.6,0.3s0.6,0.2,0.9,0.3c1,0.3,1.7,0.6,2.1,0.9
			s0.6,0.8,0.6,1.4c0,0.5-0.1,0.9-0.3,1.3s-0.5,0.7-0.9,0.9c-0.4,0.3-0.9,0.4-1.4,0.6S295.2,146.3,294.5,146.3z"/>
	</g>
</g>
</svg>
